# xmcd
#
# Track frame offsets:
#	150
#	22287
#	43082
#	67740
#	87125
#	109035
#	132655
#	156895
#	184612
#	208927
#	233052
#	258342
#	281215
#	303650
#	321787
#
# Disc length: 4629 seconds
#
# Revision: 1
# Processed by: cddbd v1.5.1PL0 Copyright (c) Steve Scherf et al.
# Submitted via: CDex 1.50Beta5
#
DISCID=db12130f
DTITLE=相田翔子 - C’est・mon・・na〜Best of Shoko Aida
DYEAR=2002
DGENRE=Pop
TTITLE0=始まりは東の空
TTITLE1=Joia
TTITLE2=三日月の夜の小鳥たち
TTITLE3=Love
TTITLE4=愛された薔薇(Romero Ver.)
TTITLE5=Andy
TTITLE6=裸足のマリオネット
TTITLE7=0:00 a.m.〜午後0時
TTITLE8=Shake Your Heart
TTITLE9=海に輝いて
TTITLE10=冷たい月の夜
TTITLE11=ゆりかごを揺すられて
TTITLE12=i Julia
TTITLE13=裸で眠りましょう
TTITLE14=おしえて
EXTD=
EXTT0=
EXTT1=
EXTT2=
EXTT3=
EXTT4=
EXTT5=
EXTT6=
EXTT7=
EXTT8=
EXTT9=
EXTT10=
EXTT11=
EXTT12=
EXTT13=
EXTT14=
PLAYORDER=
